solid GEOM
  facet normal 0.481629 0.000000 -0.876375
    outer loop
      vertex 20.976160 0.740000 1.085840
      vertex 21.038500 1.100000 1.120100
      vertex 21.038500 0.740000 1.120100
    endloop
  endfacet
  facet normal 0.481629 0.000000 -0.876375
    outer loop
      vertex 20.976160 0.740000 1.085840
      vertex 20.976160 1.100000 1.085840
      vertex 21.038500 1.100000 1.120100
    endloop
  endfacet
  facet normal 0.481626 0.000000 -0.876377
    outer loop
      vertex 20.893040 0.740000 1.040160
      vertex 20.976160 1.100000 1.085840
      vertex 20.976160 0.740000 1.085840
    endloop
  endfacet
  facet normal 0.481626 0.000000 -0.876377
    outer loop
      vertex 20.893040 0.740000 1.040160
      vertex 20.893040 1.100000 1.040160
      vertex 20.976160 1.100000 1.085840
    endloop
  endfacet
  facet normal 0.481628 0.000000 -0.876376
    outer loop
      vertex 20.830700 0.740000 1.005900
      vertex 20.893040 1.100000 1.040160
      vertex 20.893040 0.740000 1.040160
    endloop
  endfacet
  facet normal 0.481628 0.000000 -0.876376
    outer loop
      vertex 20.830700 0.740000 1.005900
      vertex 20.830700 1.100000 1.005900
      vertex 20.893040 1.100000 1.040160
    endloop
  endfacet
  facet normal 0.481629 0.000000 -0.876375
    outer loop
      vertex 20.976160 0.260000 1.085840
      vertex 21.038500 0.740000 1.120100
      vertex 21.038500 0.260000 1.120100
    endloop
  endfacet
  facet normal 0.481629 0.000000 -0.876375
    outer loop
      vertex 20.976160 0.260000 1.085840
      vertex 20.976160 0.740000 1.085840
      vertex 21.038500 0.740000 1.120100
    endloop
  endfacet
  facet normal 0.481626 0.000000 -0.876377
    outer loop
      vertex 20.893040 0.260000 1.040160
      vertex 20.976160 0.740000 1.085840
      vertex 20.976160 0.260000 1.085840
    endloop
  endfacet
  facet normal 0.481626 0.000000 -0.876377
    outer loop
      vertex 20.893040 0.260000 1.040160
      vertex 20.893040 0.740000 1.040160
      vertex 20.976160 0.740000 1.085840
    endloop
  endfacet
  facet normal 0.481628 0.000000 -0.876376
    outer loop
      vertex 20.830700 0.260000 1.005900
      vertex 20.893040 0.740000 1.040160
      vertex 20.893040 0.260000 1.040160
    endloop
  endfacet
  facet normal 0.481628 0.000000 -0.876376
    outer loop
      vertex 20.830700 0.260000 1.005900
      vertex 20.830700 0.740000 1.005900
      vertex 20.893040 0.740000 1.040160
    endloop
  endfacet
  facet normal 0.481629 0.000000 -0.876375
    outer loop
      vertex 20.976160 -0.100000 1.085840
      vertex 21.038500 0.260000 1.120100
      vertex 21.038500 -0.100000 1.120100
    endloop
  endfacet
  facet normal 0.481629 0.000000 -0.876375
    outer loop
      vertex 20.976160 -0.100000 1.085840
      vertex 20.976160 0.260000 1.085840
      vertex 21.038500 0.260000 1.120100
    endloop
  endfacet
  facet normal 0.481626 0.000000 -0.876377
    outer loop
      vertex 20.893040 -0.100000 1.040160
      vertex 20.976160 0.260000 1.085840
      vertex 20.976160 -0.100000 1.085840
    endloop
  endfacet
  facet normal 0.481626 0.000000 -0.876377
    outer loop
      vertex 20.893040 -0.100000 1.040160
      vertex 20.893040 0.260000 1.040160
      vertex 20.976160 0.260000 1.085840
    endloop
  endfacet
  facet normal 0.481628 0.000000 -0.876376
    outer loop
      vertex 20.830700 -0.100000 1.005900
      vertex 20.893040 0.260000 1.040160
      vertex 20.893040 -0.100000 1.040160
    endloop
  endfacet
  facet normal 0.481628 0.000000 -0.876376
    outer loop
      vertex 20.830700 -0.100000 1.005900
      vertex 20.830700 0.260000 1.005900
      vertex 20.893040 0.260000 1.040160
    endloop
  endfacet
  facet normal -0.080722 0.000000 0.996737
    outer loop
      vertex 21.141850 0.740000 1.128470
      vertex 21.038500 1.100000 1.120100
      vertex 21.038500 0.740000 1.120100
    endloop
  endfacet
  facet normal -0.080722 0.000000 0.996737
    outer loop
      vertex 21.141850 0.740000 1.128470
      vertex 21.141850 1.100000 1.128470
      vertex 21.038500 1.100000 1.120100
    endloop
  endfacet
  facet normal -0.080723 0.000000 0.996737
    outer loop
      vertex 21.279650 0.740000 1.139630
      vertex 21.141850 1.100000 1.128470
      vertex 21.141850 0.740000 1.128470
    endloop
  endfacet
  facet normal -0.080723 0.000000 0.996737
    outer loop
      vertex 21.279650 0.740000 1.139630
      vertex 21.279650 1.100000 1.139630
      vertex 21.141850 1.100000 1.128470
    endloop
  endfacet
  facet normal -0.080723 0.000000 0.996737
    outer loop
      vertex 21.382999 0.740000 1.148000
      vertex 21.279650 1.100000 1.139630
      vertex 21.279650 0.740000 1.139630
    endloop
  endfacet
  facet normal -0.080724 -0.000000 0.996737
    outer loop
      vertex 21.382999 0.740000 1.148000
      vertex 21.382999 1.100000 1.148000
      vertex 21.279650 1.100000 1.139630
    endloop
  endfacet
  facet normal -0.080722 0.000000 0.996737
    outer loop
      vertex 21.141850 0.260000 1.128470
      vertex 21.038500 0.740000 1.120100
      vertex 21.038500 0.260000 1.120100
    endloop
  endfacet
  facet normal -0.080722 0.000000 0.996737
    outer loop
      vertex 21.141850 0.260000 1.128470
      vertex 21.141850 0.740000 1.128470
      vertex 21.038500 0.740000 1.120100
    endloop
  endfacet
  facet normal -0.080723 0.000000 0.996737
    outer loop
      vertex 21.279650 0.260000 1.139630
      vertex 21.141850 0.740000 1.128470
      vertex 21.141850 0.260000 1.128470
    endloop
  endfacet
  facet normal -0.080723 0.000000 0.996737
    outer loop
      vertex 21.279650 0.260000 1.139630
      vertex 21.279650 0.740000 1.139630
      vertex 21.141850 0.740000 1.128470
    endloop
  endfacet
  facet normal -0.080723 0.000000 0.996737
    outer loop
      vertex 21.382999 0.260000 1.148000
      vertex 21.279650 0.740000 1.139630
      vertex 21.279650 0.260000 1.139630
    endloop
  endfacet
  facet normal -0.080723 0.000000 0.996737
    outer loop
      vertex 21.382999 0.260000 1.148000
      vertex 21.382999 0.740000 1.148000
      vertex 21.279650 0.740000 1.139630
    endloop
  endfacet
  facet normal -0.080722 0.000000 0.996737
    outer loop
      vertex 21.141850 -0.100000 1.128470
      vertex 21.038500 0.260000 1.120100
      vertex 21.038500 -0.100000 1.120100
    endloop
  endfacet
  facet normal -0.080722 0.000000 0.996737
    outer loop
      vertex 21.141850 -0.100000 1.128470
      vertex 21.141850 0.260000 1.128470
      vertex 21.038500 0.260000 1.120100
    endloop
  endfacet
  facet normal -0.080723 0.000000 0.996737
    outer loop
      vertex 21.279650 -0.100000 1.139630
      vertex 21.141850 0.260000 1.128470
      vertex 21.141850 -0.100000 1.128470
    endloop
  endfacet
  facet normal -0.080723 0.000000 0.996737
    outer loop
      vertex 21.279650 -0.100000 1.139630
      vertex 21.279650 0.260000 1.139630
      vertex 21.141850 0.260000 1.128470
    endloop
  endfacet
  facet normal -0.080724 0.000000 0.996737
    outer loop
      vertex 21.382999 -0.100000 1.148000
      vertex 21.279650 0.260000 1.139630
      vertex 21.279650 -0.100000 1.139630
    endloop
  endfacet
  facet normal -0.080723 0.000000 0.996737
    outer loop
      vertex 21.382999 -0.100000 1.148000
      vertex 21.382999 0.260000 1.148000
      vertex 21.279650 0.260000 1.139630
    endloop
  endfacet
  facet normal 0.000000 0.000000 1.000000
    outer loop
      vertex 20.876181 0.740000 1.005900
      vertex 20.830700 1.100000 1.005900
      vertex 20.830700 0.740000 1.005900
    endloop
  endfacet
  facet normal 0.000000 -0.000000 1.000000
    outer loop
      vertex 20.876181 0.740000 1.005900
      vertex 20.876181 1.100000 1.005900
      vertex 20.830700 1.100000 1.005900
    endloop
  endfacet
  facet normal 0.000000 0.000000 1.000000
    outer loop
      vertex 20.936819 0.740000 1.005900
      vertex 20.876181 1.100000 1.005900
      vertex 20.876181 0.740000 1.005900
    endloop
  endfacet
  facet normal 0.000000 -0.000000 1.000000
    outer loop
      vertex 20.936819 0.740000 1.005900
      vertex 20.936819 1.100000 1.005900
      vertex 20.876181 1.100000 1.005900
    endloop
  endfacet
  facet normal 0.000000 0.000000 1.000000
    outer loop
      vertex 20.982300 0.740000 1.005900
      vertex 20.936819 1.100000 1.005900
      vertex 20.936819 0.740000 1.005900
    endloop
  endfacet
  facet normal 0.000000 -0.000000 1.000000
    outer loop
      vertex 20.982300 0.740000 1.005900
      vertex 20.982300 1.100000 1.005900
      vertex 20.936819 1.100000 1.005900
    endloop
  endfacet
  facet normal 0.000000 0.000000 1.000000
    outer loop
      vertex 20.876181 0.260000 1.005900
      vertex 20.830700 0.740000 1.005900
      vertex 20.830700 0.260000 1.005900
    endloop
  endfacet
  facet normal 0.000000 -0.000000 1.000000
    outer loop
      vertex 20.876181 0.260000 1.005900
      vertex 20.876181 0.740000 1.005900
      vertex 20.830700 0.740000 1.005900
    endloop
  endfacet
  facet normal 0.000000 0.000000 1.000000
    outer loop
      vertex 20.936819 0.260000 1.005900
      vertex 20.876181 0.740000 1.005900
      vertex 20.876181 0.260000 1.005900
    endloop
  endfacet
  facet normal 0.000000 -0.000000 1.000000
    outer loop
      vertex 20.936819 0.260000 1.005900
      vertex 20.936819 0.740000 1.005900
      vertex 20.876181 0.740000 1.005900
    endloop
  endfacet
  facet normal 0.000000 0.000000 1.000000
    outer loop
      vertex 20.982300 0.260000 1.005900
      vertex 20.936819 0.740000 1.005900
      vertex 20.936819 0.260000 1.005900
    endloop
  endfacet
  facet normal 0.000000 -0.000000 1.000000
    outer loop
      vertex 20.982300 0.260000 1.005900
      vertex 20.982300 0.740000 1.005900
      vertex 20.936819 0.740000 1.005900
    endloop
  endfacet
  facet normal 0.000000 0.000000 1.000000
    outer loop
      vertex 20.876181 -0.100000 1.005900
      vertex 20.830700 0.260000 1.005900
      vertex 20.830700 -0.100000 1.005900
    endloop
  endfacet
  facet normal 0.000000 -0.000000 1.000000
    outer loop
      vertex 20.876181 -0.100000 1.005900
      vertex 20.876181 0.260000 1.005900
      vertex 20.830700 0.260000 1.005900
    endloop
  endfacet
  facet normal 0.000000 0.000000 1.000000
    outer loop
      vertex 20.936819 -0.100000 1.005900
      vertex 20.876181 0.260000 1.005900
      vertex 20.876181 -0.100000 1.005900
    endloop
  endfacet
  facet normal 0.000000 -0.000000 1.000000
    outer loop
      vertex 20.936819 -0.100000 1.005900
      vertex 20.936819 0.260000 1.005900
      vertex 20.876181 0.260000 1.005900
    endloop
  endfacet
  facet normal 0.000000 0.000000 1.000000
    outer loop
      vertex 20.982300 -0.100000 1.005900
      vertex 20.936819 0.260000 1.005900
      vertex 20.936819 -0.100000 1.005900
    endloop
  endfacet
  facet normal 0.000000 -0.000000 1.000000
    outer loop
      vertex 20.982300 -0.100000 1.005900
      vertex 20.982300 0.260000 1.005900
      vertex 20.936819 0.260000 1.005900
    endloop
  endfacet
  facet normal 0.481620 0.000000 -0.876380
    outer loop
      vertex 21.005610 0.260000 1.018710
      vertex 20.982300 -0.100000 1.005900
      vertex 20.982300 0.260000 1.005900
    endloop
  endfacet
  facet normal 0.481620 0.000000 -0.876380
    outer loop
      vertex 21.005610 0.260000 1.018710
      vertex 21.005610 -0.100000 1.018710
      vertex 20.982300 -0.100000 1.005900
    endloop
  endfacet
  facet normal 0.481614 0.000000 -0.876383
    outer loop
      vertex 21.036690 0.260000 1.035790
      vertex 21.005610 -0.100000 1.018710
      vertex 21.005610 0.260000 1.018710
    endloop
  endfacet
  facet normal 0.481614 0.000000 -0.876383
    outer loop
      vertex 21.036690 0.260000 1.035790
      vertex 21.036690 -0.100000 1.035790
      vertex 21.005610 -0.100000 1.018710
    endloop
  endfacet
  facet normal 0.481620 0.000000 -0.876380
    outer loop
      vertex 21.059999 0.260000 1.048600
      vertex 21.036690 -0.100000 1.035790
      vertex 21.036690 0.260000 1.035790
    endloop
  endfacet
  facet normal 0.481628 -0.000001 -0.876376
    outer loop
      vertex 21.059999 0.260000 1.048600
      vertex 21.059999 -0.100000 1.048600
      vertex 21.036690 -0.100000 1.035790
    endloop
  endfacet
  facet normal 0.481620 0.000000 -0.876380
    outer loop
      vertex 21.005610 0.740000 1.018710
      vertex 20.982300 0.260000 1.005900
      vertex 20.982300 0.740000 1.005900
    endloop
  endfacet
  facet normal 0.481620 0.000000 -0.876380
    outer loop
      vertex 21.005610 0.740000 1.018710
      vertex 21.005610 0.260000 1.018710
      vertex 20.982300 0.260000 1.005900
    endloop
  endfacet
  facet normal 0.481614 0.000000 -0.876383
    outer loop
      vertex 21.036690 0.740000 1.035790
      vertex 21.005610 0.260000 1.018710
      vertex 21.005610 0.740000 1.018710
    endloop
  endfacet
  facet normal 0.481614 0.000000 -0.876383
    outer loop
      vertex 21.036690 0.740000 1.035790
      vertex 21.036690 0.260000 1.035790
      vertex 21.005610 0.260000 1.018710
    endloop
  endfacet
  facet normal 0.481620 0.000000 -0.876380
    outer loop
      vertex 21.059999 0.740000 1.048600
      vertex 21.036690 0.260000 1.035790
      vertex 21.036690 0.740000 1.035790
    endloop
  endfacet
  facet normal 0.481620 0.000000 -0.876380
    outer loop
      vertex 21.059999 0.740000 1.048600
      vertex 21.059999 0.260000 1.048600
      vertex 21.036690 0.260000 1.035790
    endloop
  endfacet
  facet normal 0.481620 0.000000 -0.876380
    outer loop
      vertex 21.005610 1.100000 1.018710
      vertex 20.982300 0.740000 1.005900
      vertex 20.982300 1.100000 1.005900
    endloop
  endfacet
  facet normal 0.481620 0.000000 -0.876380
    outer loop
      vertex 21.005610 1.100000 1.018710
      vertex 21.005610 0.740000 1.018710
      vertex 20.982300 0.740000 1.005900
    endloop
  endfacet
  facet normal 0.481614 0.000000 -0.876383
    outer loop
      vertex 21.036690 1.100000 1.035790
      vertex 21.005610 0.740000 1.018710
      vertex 21.005610 1.100000 1.018710
    endloop
  endfacet
  facet normal 0.481614 0.000000 -0.876383
    outer loop
      vertex 21.036690 1.100000 1.035790
      vertex 21.036690 0.740000 1.035790
      vertex 21.005610 0.740000 1.018710
    endloop
  endfacet
  facet normal 0.481628 0.000000 -0.876376
    outer loop
      vertex 21.059999 1.100000 1.048600
      vertex 21.036690 0.740000 1.035790
      vertex 21.036690 1.100000 1.035790
    endloop
  endfacet
  facet normal 0.481620 0.000001 -0.876380
    outer loop
      vertex 21.059999 1.100000 1.048600
      vertex 21.059999 0.740000 1.048600
      vertex 21.036690 0.740000 1.035790
    endloop
  endfacet
  facet normal 0.080849 -0.000000 -0.996726
    outer loop
      vertex 21.156898 0.260000 1.056460
      vertex 21.059999 -0.100000 1.048600
      vertex 21.059999 0.260000 1.048600
    endloop
  endfacet
  facet normal 0.080849 0.000000 -0.996726
    outer loop
      vertex 21.156898 0.260000 1.056460
      vertex 21.156898 -0.100000 1.056460
      vertex 21.059999 -0.100000 1.048600
    endloop
  endfacet
  facet normal 0.080849 0.000000 -0.996726
    outer loop
      vertex 21.286098 0.260000 1.066940
      vertex 21.156898 -0.100000 1.056460
      vertex 21.156898 0.260000 1.056460
    endloop
  endfacet
  facet normal 0.080849 0.000000 -0.996726
    outer loop
      vertex 21.286098 0.260000 1.066940
      vertex 21.286098 -0.100000 1.066940
      vertex 21.156898 -0.100000 1.056460
    endloop
  endfacet
  facet normal 0.080848 0.000000 -0.996726
    outer loop
      vertex 21.382999 0.260000 1.074800
      vertex 21.286098 -0.100000 1.066940
      vertex 21.286098 0.260000 1.066940
    endloop
  endfacet
  facet normal 0.080848 -0.000000 -0.996726
    outer loop
      vertex 21.382999 0.260000 1.074800
      vertex 21.382999 -0.100000 1.074800
      vertex 21.286098 -0.100000 1.066940
    endloop
  endfacet
  facet normal 0.080849 0.000000 -0.996726
    outer loop
      vertex 21.156898 0.740000 1.056460
      vertex 21.059999 0.260000 1.048600
      vertex 21.059999 0.740000 1.048600
    endloop
  endfacet
  facet normal 0.080849 0.000000 -0.996726
    outer loop
      vertex 21.156898 0.740000 1.056460
      vertex 21.156898 0.260000 1.056460
      vertex 21.059999 0.260000 1.048600
    endloop
  endfacet
  facet normal 0.080849 0.000000 -0.996726
    outer loop
      vertex 21.286098 0.740000 1.066940
      vertex 21.156898 0.260000 1.056460
      vertex 21.156898 0.740000 1.056460
    endloop
  endfacet
  facet normal 0.080849 0.000000 -0.996726
    outer loop
      vertex 21.286098 0.740000 1.066940
      vertex 21.286098 0.260000 1.066940
      vertex 21.156898 0.260000 1.056460
    endloop
  endfacet
  facet normal 0.080848 0.000000 -0.996726
    outer loop
      vertex 21.382999 0.740000 1.074800
      vertex 21.286098 0.260000 1.066940
      vertex 21.286098 0.740000 1.066940
    endloop
  endfacet
  facet normal 0.080848 0.000000 -0.996726
    outer loop
      vertex 21.382999 0.740000 1.074800
      vertex 21.382999 0.260000 1.074800
      vertex 21.286098 0.260000 1.066940
    endloop
  endfacet
  facet normal 0.080849 0.000000 -0.996726
    outer loop
      vertex 21.156898 1.100000 1.056460
      vertex 21.059999 0.740000 1.048600
      vertex 21.059999 1.100000 1.048600
    endloop
  endfacet
  facet normal 0.080849 0.000000 -0.996726
    outer loop
      vertex 21.156898 1.100000 1.056460
      vertex 21.156898 0.740000 1.056460
      vertex 21.059999 0.740000 1.048600
    endloop
  endfacet
  facet normal 0.080849 0.000000 -0.996726
    outer loop
      vertex 21.286098 1.100000 1.066940
      vertex 21.156898 0.740000 1.056460
      vertex 21.156898 1.100000 1.056460
    endloop
  endfacet
  facet normal 0.080849 0.000000 -0.996726
    outer loop
      vertex 21.286098 1.100000 1.066940
      vertex 21.286098 0.740000 1.066940
      vertex 21.156898 0.740000 1.056460
    endloop
  endfacet
  facet normal 0.080847 0.000000 -0.996727
    outer loop
      vertex 21.382999 1.100000 1.074800
      vertex 21.286098 0.740000 1.066940
      vertex 21.286098 1.100000 1.066940
    endloop
  endfacet
  facet normal 0.080848 -0.000000 -0.996726
    outer loop
      vertex 21.382999 1.100000 1.074800
      vertex 21.382999 0.740000 1.074800
      vertex 21.286098 0.740000 1.066940
    endloop
  endfacet
  facet normal 1.000000 0.000000 -0.000019
    outer loop
      vertex 21.382999 0.740000 1.096760
      vertex 21.382999 1.100000 1.074800
      vertex 21.382999 1.100000 1.096760
    endloop
  endfacet
  facet normal 1.000000 0.000001 0.000000
    outer loop
      vertex 21.382999 0.740000 1.096760
      vertex 21.382999 0.740000 1.074800
      vertex 21.382999 1.100000 1.074800
    endloop
  endfacet
  facet normal 1.000000 -0.000000 0.000000
    outer loop
      vertex 21.382999 0.260000 1.096760
      vertex 21.382999 0.740000 1.074800
      vertex 21.382999 0.740000 1.096760
    endloop
  endfacet
  facet normal 1.000000 0.000000 0.000000
    outer loop
      vertex 21.382999 0.260000 1.096760
      vertex 21.382999 0.260000 1.074800
      vertex 21.382999 0.740000 1.074800
    endloop
  endfacet
  facet normal 1.000000 -0.000000 0.000000
    outer loop
      vertex 21.382999 -0.100000 1.096760
      vertex 21.382999 0.260000 1.074800
      vertex 21.382999 0.260000 1.096760
    endloop
  endfacet
  facet normal 1.000000 -0.000001 -0.000019
    outer loop
      vertex 21.382999 -0.100000 1.096760
      vertex 21.382999 -0.100000 1.074800
      vertex 21.382999 0.260000 1.074800
    endloop
  endfacet
  facet normal 1.000000 -0.000000 0.000000
    outer loop
      vertex 21.382999 0.740000 1.126040
      vertex 21.382999 1.100000 1.096760
      vertex 21.382999 1.100000 1.126040
    endloop
  endfacet
  facet normal 1.000000 0.000000 0.000000
    outer loop
      vertex 21.382999 0.740000 1.126040
      vertex 21.382999 0.740000 1.096760
      vertex 21.382999 1.100000 1.096760
    endloop
  endfacet
  facet normal 1.000000 -0.000000 0.000000
    outer loop
      vertex 21.382999 0.260000 1.126040
      vertex 21.382999 0.740000 1.096760
      vertex 21.382999 0.740000 1.126040
    endloop
  endfacet
  facet normal 1.000000 0.000000 0.000000
    outer loop
      vertex 21.382999 0.260000 1.126040
      vertex 21.382999 0.260000 1.096760
      vertex 21.382999 0.740000 1.096760
    endloop
  endfacet
  facet normal 1.000000 -0.000000 0.000000
    outer loop
      vertex 21.382999 -0.100000 1.126040
      vertex 21.382999 0.260000 1.096760
      vertex 21.382999 0.260000 1.126040
    endloop
  endfacet
  facet normal 1.000000 0.000000 0.000000
    outer loop
      vertex 21.382999 -0.100000 1.126040
      vertex 21.382999 -0.100000 1.096760
      vertex 21.382999 0.260000 1.096760
    endloop
  endfacet
  facet normal 1.000000 0.000001 0.000019
    outer loop
      vertex 21.382999 0.740000 1.148000
      vertex 21.382999 1.100000 1.126040
      vertex 21.382999 1.100000 1.148000
    endloop
  endfacet
  facet normal 1.000000 0.000000 0.000000
    outer loop
      vertex 21.382999 0.740000 1.148000
      vertex 21.382999 0.740000 1.126040
      vertex 21.382999 1.100000 1.126040
    endloop
  endfacet
  facet normal 1.000000 -0.000000 0.000000
    outer loop
      vertex 21.382999 0.260000 1.148000
      vertex 21.382999 0.740000 1.126040
      vertex 21.382999 0.740000 1.148000
    endloop
  endfacet
  facet normal 1.000000 0.000000 0.000000
    outer loop
      vertex 21.382999 0.260000 1.148000
      vertex 21.382999 0.260000 1.126040
      vertex 21.382999 0.740000 1.126040
    endloop
  endfacet
  facet normal 1.000000 -0.000001 0.000000
    outer loop
      vertex 21.382999 -0.100000 1.148000
      vertex 21.382999 0.260000 1.126040
      vertex 21.382999 0.260000 1.148000
    endloop
  endfacet
  facet normal 1.000000 0.000000 0.000019
    outer loop
      vertex 21.382999 -0.100000 1.148000
      vertex 21.382999 -0.100000 1.126040
      vertex 21.382999 0.260000 1.126040
    endloop
  endfacet
  facet normal 0.000000 1.000000 0.000000
    outer loop
      vertex 21.242929 -0.100000 1.079750
      vertex 21.258017 -0.100000 1.064662
      vertex 21.225178 -0.100000 1.061998
    endloop
  endfacet
  facet normal 0.000000 1.000000 0.000000
    outer loop
      vertex 20.982300 -0.100000 1.005900
      vertex 21.007370 -0.100000 1.037550
      vertex 21.018904 -0.100000 1.026016
    endloop
  endfacet
  facet normal 0.000000 1.000000 0.000000
    outer loop
      vertex 20.975719 -0.100000 1.005900
      vertex 21.007370 -0.100000 1.037550
      vertex 20.982300 -0.100000 1.005900
    endloop
  endfacet
  facet normal -0.000000 1.000000 -0.000000
    outer loop
      vertex 21.018904 -0.100000 1.026016
      vertex 21.007370 -0.100000 1.037550
      vertex 21.059999 -0.100000 1.048600
    endloop
  endfacet
  facet normal 0.000000 1.000000 0.000000
    outer loop
      vertex 21.242929 -0.100000 1.079750
      vertex 21.225178 -0.100000 1.061998
      vertex 21.190287 -0.100000 1.132393
    endloop
  endfacet
  facet normal -0.000000 1.000000 0.000000
    outer loop
      vertex 21.190287 -0.100000 1.132393
      vertex 21.059999 -0.100000 1.048600
      vertex 21.094452 -0.100000 1.124631
    endloop
  endfacet
  facet normal 0.000000 1.000000 0.000000
    outer loop
      vertex 21.225178 -0.100000 1.061998
      vertex 21.059999 -0.100000 1.048600
      vertex 21.190287 -0.100000 1.132393
    endloop
  endfacet
  facet normal -0.000000 1.000000 0.000000
    outer loop
      vertex 21.007370 -0.100000 1.037550
      vertex 21.094452 -0.100000 1.124631
      vertex 21.059999 -0.100000 1.048600
    endloop
  endfacet
  facet normal -0.000000 1.000000 0.000000
    outer loop
      vertex 21.382999 -0.100000 1.074800
      vertex 21.304850 -0.100000 1.141671
      vertex 21.382999 -0.100000 1.148000
    endloop
  endfacet
  facet normal -0.000000 1.000000 0.000000
    outer loop
      vertex 21.258017 -0.100000 1.064662
      vertex 21.304850 -0.100000 1.141671
      vertex 21.382999 -0.100000 1.074800
    endloop
  endfacet
  facet normal -0.000000 1.000000 0.000000
    outer loop
      vertex 21.242929 -0.100000 1.079750
      vertex 21.304850 -0.100000 1.141671
      vertex 21.258017 -0.100000 1.064662
    endloop
  endfacet
  facet normal 0.000000 1.000000 -0.000000
    outer loop
      vertex 21.242929 -0.100000 1.079750
      vertex 21.190287 -0.100000 1.132393
      vertex 21.304850 -0.100000 1.141671
    endloop
  endfacet
  facet normal 0.000000 1.000000 0.000000
    outer loop
      vertex 20.830700 -0.100000 1.005900
      vertex 20.965137 -0.100000 1.079782
      vertex 20.975719 -0.100000 1.005900
    endloop
  endfacet
  facet normal 0.000000 1.000000 0.000000
    outer loop
      vertex 20.965137 -0.100000 1.079782
      vertex 21.007370 -0.100000 1.037550
      vertex 20.975719 -0.100000 1.005900
    endloop
  endfacet
  facet normal 0.000000 1.000000 0.000000
    outer loop
      vertex 21.038500 -0.100000 1.120100
      vertex 21.007370 -0.100000 1.037550
      vertex 20.965137 -0.100000 1.079782
    endloop
  endfacet
  facet normal 0.000000 1.000000 0.000000
    outer loop
      vertex 21.094452 -0.100000 1.124631
      vertex 21.007370 -0.100000 1.037550
      vertex 21.038500 -0.100000 1.120100
    endloop
  endfacet
  facet normal 0.000000 1.000000 0.000000
    outer loop
      vertex 21.242929 1.100000 1.079750
      vertex 21.258017 1.100000 1.064662
      vertex 21.225178 1.100000 1.061998
    endloop
  endfacet
  facet normal 0.000000 1.000000 0.000000
    outer loop
      vertex 20.982300 1.100000 1.005900
      vertex 21.007370 1.100000 1.037550
      vertex 21.018904 1.100000 1.026016
    endloop
  endfacet
  facet normal 0.000000 1.000000 0.000000
    outer loop
      vertex 20.975719 1.100000 1.005900
      vertex 21.007370 1.100000 1.037550
      vertex 20.982300 1.100000 1.005900
    endloop
  endfacet
  facet normal 0.000000 1.000000 0.000000
    outer loop
      vertex 21.018904 1.100000 1.026016
      vertex 21.007370 1.100000 1.037550
      vertex 21.059999 1.100000 1.048600
    endloop
  endfacet
  facet normal 0.000000 1.000000 0.000000
    outer loop
      vertex 21.242929 1.100000 1.079750
      vertex 21.225178 1.100000 1.061998
      vertex 21.190287 1.100000 1.132393
    endloop
  endfacet
  facet normal 0.000000 1.000000 -0.000000
    outer loop
      vertex 21.190287 1.100000 1.132393
      vertex 21.059999 1.100000 1.048600
      vertex 21.094452 1.100000 1.124631
    endloop
  endfacet
  facet normal -0.000000 1.000000 -0.000000
    outer loop
      vertex 21.225178 1.100000 1.061998
      vertex 21.059999 1.100000 1.048600
      vertex 21.190287 1.100000 1.132393
    endloop
  endfacet
  facet normal 0.000001 1.000000 -0.000001
    outer loop
      vertex 21.007370 1.100000 1.037550
      vertex 21.094452 1.100000 1.124631
      vertex 21.059999 1.100000 1.048600
    endloop
  endfacet
  facet normal 0.000000 1.000000 -0.000000
    outer loop
      vertex 21.382999 1.100000 1.074800
      vertex 21.304850 1.100000 1.141671
      vertex 21.382999 1.100000 1.148000
    endloop
  endfacet
  facet normal 0.000000 1.000000 -0.000000
    outer loop
      vertex 21.258017 1.100000 1.064662
      vertex 21.304850 1.100000 1.141671
      vertex 21.382999 1.100000 1.074800
    endloop
  endfacet
  facet normal -0.000000 1.000000 0.000000
    outer loop
      vertex 21.242929 1.100000 1.079750
      vertex 21.304850 1.100000 1.141671
      vertex 21.258017 1.100000 1.064662
    endloop
  endfacet
  facet normal 0.000000 1.000000 -0.000000
    outer loop
      vertex 21.242929 1.100000 1.079750
      vertex 21.190287 1.100000 1.132393
      vertex 21.304850 1.100000 1.141671
    endloop
  endfacet
  facet normal 0.000000 1.000000 0.000000
    outer loop
      vertex 20.830700 1.100000 1.005900
      vertex 20.965137 1.100000 1.079782
      vertex 20.975719 1.100000 1.005900
    endloop
  endfacet
  facet normal 0.000000 1.000000 0.000000
    outer loop
      vertex 20.965137 1.100000 1.079782
      vertex 21.007370 1.100000 1.037550
      vertex 20.975719 1.100000 1.005900
    endloop
  endfacet
  facet normal 0.000000 1.000000 0.000000
    outer loop
      vertex 21.038500 1.100000 1.120100
      vertex 21.007370 1.100000 1.037550
      vertex 20.965137 1.100000 1.079782
    endloop
  endfacet
  facet normal 0.000000 1.000000 0.000000
    outer loop
      vertex 21.094452 1.100000 1.124631
      vertex 21.007370 1.100000 1.037550
      vertex 21.038500 1.100000 1.120100
    endloop
  endfacet
endsolid GEOM
