solid zone0
 facet normal -1.13871e-06 1 0
  outer loop
   vertex 0.000400543 22 0
   vertex 0.000400543 22 0.519997
   vertex 351.751 22.0004 0
  endloop
 endfacet
 facet normal -1.13871e-06 1 0
  outer loop
   vertex 351.751 22.0004 0
   vertex 0.000400543 22 0.519997
   vertex 351.751 22.0004 0.519997
  endloop
 endfacet
 facet normal -0 0 1
  outer loop
   vertex 0.000400543 22 0.519997
   vertex 0.000299454 14.0001 0.519997
   vertex 351.751 22.0004 0.519997
  endloop
 endfacet
 facet normal 0 0 1
  outer loop
   vertex 351.751 22.0004 0.519997
   vertex 0.000299454 14.0001 0.519997
   vertex 351.751 14.0003 0.519997
  endloop
 endfacet
 facet normal -5.74779e-07 1 1.07936e-05
  outer loop
   vertex 0.000299454 14.0001 0.519997
   vertex 3.45715e-11 13.9999 18.898
   vertex 351.751 14.0003 0.519997
  endloop
 endfacet
 facet normal -1.13871e-06 1 0
  outer loop
   vertex 351.751 14.0003 0.519997
   vertex 3.45715e-11 13.9999 18.898
   vertex 351.751 14.0003 18.898
  endloop
 endfacet
 facet normal 4.64423e-11 -4.07849e-05 1
  outer loop
   vertex 3.45715e-11 13.9999 18.898
   vertex 9.91822e-05 11.5213 18.8979
   vertex 351.751 14.0003 18.898
  endloop
 endfacet
 facet normal 5.79446e-11 -4.07865e-05 1
  outer loop
   vertex 351.751 14.0003 18.898
   vertex 9.91822e-05 11.5213 18.8979
   vertex 351.751 11.5218 18.8979
  endloop
 endfacet
 facet normal -2.4917e-08 0.0175388 0.999846
  outer loop
   vertex 9.91822e-05 11.5213 18.8979
   vertex 0.000400543 0 19.1
   vertex 351.751 11.5218 18.8979
  endloop
 endfacet
 facet normal -5.98238e-08 0.0175399 0.999846
  outer loop
   vertex 351.751 11.5218 18.8979
   vertex 0.000400543 0 19.1
   vertex 351.749 0.00119972 19.1
  endloop
 endfacet
 facet normal 5.93084e-08 -0.0173887 0.999849
  outer loop
   vertex 0.000400543 0 19.1
   vertex 0.000299454 -11.5 18.9
   vertex 351.749 0.00119972 19.1
  endloop
 endfacet
 facet normal 1.48494e-08 -0.0173874 0.999849
  outer loop
   vertex 351.749 0.00119972 19.1
   vertex 0.000299454 -11.5 18.9
   vertex 351.751 -11.4997 18.9
  endloop
 endfacet
 facet normal -0 0 1
  outer loop
   vertex 0.000299454 -11.5 18.9
   vertex 3.45715e-11 -13.9994 18.9
   vertex 351.751 -11.4997 18.9
  endloop
 endfacet
 facet normal 0 0 1
  outer loop
   vertex 351.751 -11.4997 18.9
   vertex 3.45715e-11 -13.9994 18.9
   vertex 351.749 -13.9988 18.9
  endloop
 endfacet
 facet normal 1.70537e-06 -1 0
  outer loop
   vertex 3.45715e-11 -13.9994 18.9
   vertex 3.45715e-11 -13.9994 0.519997
   vertex 351.749 -13.9988 18.9
  endloop
 endfacet
 facet normal 1.70537e-06 -1 0
  outer loop
   vertex 351.749 -13.9988 18.9
   vertex 3.45715e-11 -13.9994 0.519997
   vertex 351.749 -13.9988 0.519997
  endloop
 endfacet
 facet normal -0 0 1
  outer loop
   vertex 3.45715e-11 -13.9994 0.519997
   vertex 0.000400543 -22 0.519997
   vertex 351.749 -13.9988 0.519997
  endloop
 endfacet
 facet normal 0 0 1
  outer loop
   vertex 351.749 -13.9988 0.519997
   vertex 0.000400543 -22 0.519997
   vertex 351.749 -21.9989 0.519997
  endloop
 endfacet
 facet normal 3.12877e-06 -1 0
  outer loop
   vertex 0.000400543 -22 0.519997
   vertex 0.000400543 -22 0
   vertex 351.749 -21.9989 0.519997
  endloop
 endfacet
 facet normal 3.12877e-06 -1 0
  outer loop
   vertex 351.749 -21.9989 0.519997
   vertex 0.000400543 -22 0
   vertex 351.749 -21.9989 0
  endloop
 endfacet
 facet normal 0 0 -1
  outer loop
   vertex 0.000400543 -22 0
   vertex 0.000400543 22 0
   vertex 351.749 -21.9989 0
  endloop
 endfacet
 facet normal 0 0 -1
  outer loop
   vertex 351.749 -21.9989 0
   vertex 0.000400543 22 0
   vertex 351.751 22.0004 0
  endloop
 endfacet
 facet normal 1 -4.57771e-05 -0.000704276
  outer loop
   vertex 351.751 22.0004 0
   vertex 351.751 14.0003 0.519997
   vertex 351.749 -21.9989 0
  endloop
 endfacet
 facet normal 0.999999 -7.19366e-05 0.00110674
  outer loop
   vertex 351.749 -21.9989 0
   vertex 351.751 14.0003 0.519997
   vertex 351.749 -13.9988 0.519997
  endloop
 endfacet
 facet normal 1 0 0
  outer loop
   vertex 351.749 -21.9989 0
   vertex 351.749 -13.9988 0.519997
   vertex 351.749 -21.9989 0.519997
  endloop
 endfacet
 facet normal 1 0 -0
  outer loop
   vertex 351.751 22.0004 0
   vertex 351.751 22.0004 0.519997
   vertex 351.751 14.0003 0.519997
  endloop
 endfacet
 facet normal 1 0 0
  outer loop
   vertex 351.751 14.0003 18.898
   vertex 351.751 11.5218 18.8979
   vertex 351.751 14.0003 0.519997
  endloop
 endfacet
 facet normal 1 -0.000175246 -2.36342e-05
  outer loop
   vertex 351.751 14.0003 0.519997
   vertex 351.751 11.5218 18.8979
   vertex 351.749 0.00119972 19.1
  endloop
 endfacet
 facet normal 1 -7.19366e-05 5.42041e-05
  outer loop
   vertex 351.751 14.0003 0.519997
   vertex 351.749 0.00119972 19.1
   vertex 351.749 -13.9988 0.519997
  endloop
 endfacet
 facet normal 1 0.000177456 -0.000133713
  outer loop
   vertex 351.749 -13.9988 0.519997
   vertex 351.749 0.00119972 19.1
   vertex 351.751 -11.4997 18.9
  endloop
 endfacet
 facet normal 1 -0.000805954 0
  outer loop
   vertex 351.749 -13.9988 0.519997
   vertex 351.751 -11.4997 18.9
   vertex 351.749 -13.9988 18.9
  endloop
 endfacet
 facet normal -1 1.26363e-05 0
  outer loop
   vertex 0.000400543 22 0.519997
   vertex 0.000400543 22 0
   vertex 0.000299454 14.0001 0.519997
  endloop
 endfacet
 facet normal -1 0 -0.000194403
  outer loop
   vertex 0.000299454 14.0001 0.519997
   vertex 0.000400543 22 0
   vertex 0.000400543 -22 0
  endloop
 endfacet
 facet normal -1 1.0695e-05 -0.00093483
  outer loop
   vertex 0.000299454 14.0001 0.519997
   vertex 0.000400543 -22 0
   vertex 3.45715e-11 -13.9994 0.519997
  endloop
 endfacet
 facet normal -1 -5.00641e-05 0
  outer loop
   vertex 3.45715e-11 -13.9994 0.519997
   vertex 0.000400543 -22 0
   vertex 0.000400543 -22 0.519997
  endloop
 endfacet
 facet normal -1 0.00011981 0
  outer loop
   vertex 3.45715e-11 -13.9994 18.9
   vertex 0.000299454 -11.5 18.9
   vertex 3.45715e-11 -13.9994 0.519997
  endloop
 endfacet
 facet normal -1 8.52717e-06 1.51328e-05
  outer loop
   vertex 3.45715e-11 -13.9994 0.519997
   vertex 0.000299454 -11.5 18.9
   vertex 0.000400543 0 19.1
  endloop
 endfacet
 facet normal -1 1.0695e-05 1.34994e-05
  outer loop
   vertex 3.45715e-11 -13.9994 0.519997
   vertex 0.000400543 0 19.1
   vertex 0.000299454 14.0001 0.519997
  endloop
 endfacet
 facet normal -1 -2.64105e-05 -1.44597e-05
  outer loop
   vertex 0.000299454 14.0001 0.519997
   vertex 0.000400543 0 19.1
   vertex 9.91822e-05 11.5213 18.8979
  endloop
 endfacet
 facet normal -1 -4.00147e-05 -1.62946e-05
  outer loop
   vertex 0.000299454 14.0001 0.519997
   vertex 9.91822e-05 11.5213 18.8979
   vertex 3.45715e-11 13.9999 18.898
  endloop
 endfacet
endsolid zone0
